<svg xmlns="http://www.w3.org/2000/svg" width="21.995" height="21.995" viewBox="0 0 21.995 21.995"><g transform="translate(0 0)"><g transform="translate(0 0)"><path d="M21.781.09a.5.5,0,0,0-.534-.024l-21,12a.5.5,0,0,0,.09.908l6.27,2.09,2.417,6.606A.5.5,0,0,0,9.5,22a.457.457,0,0,0,.058,0,.493.493,0,0,0,.329-.189l0,0,3.557-4.468,4.892,1.631A.49.49,0,0,0,18.5,19a.5.5,0,0,0,.493-.418l3-18A.5.5,0,0,0,21.781.09ZM1.719,12.377,18.353,2.871,6.867,14.093ZM9.8,15.433a.5.5,0,0,0-.094.237l-.452,3.7L7.579,14.8l9.777-9.552Zm.409,4.367.415-3.4,1.812.6ZM18.1,17.837l-7.086-2.362,9.648-13.01Z" transform="translate(0 0)" fill="#99a3a5"/></g></g></svg>