<svg xmlns="http://www.w3.org/2000/svg" width="52" height="52" viewBox="0 0 52 52"><g transform="translate(0 0)"><g transform="translate(0 0)"><path d="M51.494.213A1.179,1.179,0,0,0,50.232.156L.6,28.52a1.181,1.181,0,0,0,.212,2.147l14.823,4.94,5.714,15.618A1.182,1.182,0,0,0,22.454,52a1.08,1.08,0,0,0,.136-.008,1.166,1.166,0,0,0,.778-.447l.012.009,8.408-10.562,11.566,3.855a1.159,1.159,0,0,0,.374.061,1.183,1.183,0,0,0,1.166-.988L51.984,1.376A1.18,1.18,0,0,0,51.494.213ZM4.064,29.261,43.389,6.788,16.235,33.318Zm19.1,7.226a1.184,1.184,0,0,0-.223.561L21.877,45.8l-3.959-10.82L41.032,12.4Zm.967,10.325.981-8.043L29.4,40.2Zm18.655-4.642L26.038,36.585,48.846,5.827Z" transform="translate(0 0)" fill="#ea6575"/></g></g></svg>