<svg xmlns="http://www.w3.org/2000/svg" viewBox="1317 2329 44 44">
  <defs>
    <style>
      .cls-1 {
        fill: #444c4e;
      }
    </style>
  </defs>
  <g id="behance" transform="translate(-1680 9940)">
    <g id="Group_221" transform="translate(2997 -7611)">
      <g id="Group_220">
        <path id="Path_418" class="cls-1" d="M3014.7-7593.783c0-1.717-1.18-1.717-1.18-1.717H3008.8v3.648h4.4C3013.952-7591.852,3014.7-7592.065,3014.7-7593.783Z" transform="translate(-2996.137 7612.135)"/>
        <path id="Path_419" class="cls-1" d="M3024.6-7592.1a2.986,2.986,0,0,0-2.9,2.467h5.366a2.4,2.4,0,0,0-2.361-2.467Z" transform="translate(-2995.193 7612.383)"/>
        <path id="Path_420" class="cls-1" d="M3013.522-7589.8H3008.8v4.292h4.508c.644,0,1.932-.215,1.932-2.146C3015.24-7589.8,3013.522-7589.8,3013.522-7589.8Z" transform="translate(-2996.137 7612.552)"/>
        <path id="Path_421" class="cls-1" d="M3019-7611a22.03,22.03,0,0,0-22,22,22.03,22.03,0,0,0,22,22,22.03,22.03,0,0,0,22-22A22.03,22.03,0,0,0,3019-7611Zm3.864,14.7h6.654v2.039h-6.654Zm-3.327,10.516c0,4.937-5.151,4.83-5.151,4.83h-8.478v-16.2h8.478c2.576,0,4.615,1.4,4.615,4.292a2.938,2.938,0,0,1-2.469,3.112C3019.751-7589.859,3019.537-7585.781,3019.537-7585.781Zm12.449-.322h-8.371a2.571,2.571,0,0,0,2.468,2.791h.429c2.683,0,2.575-1.717,2.575-1.717h2.9c0,4.614-5.58,4.292-5.58,4.292a5.756,5.756,0,0,1-6.224-5.259v-.965s0-6.225,6.224-6.225C3032.952-7593.078,3031.986-7586.1,3031.986-7586.1Z" transform="translate(-2997 7611)"/>
      </g>
    </g>
  </g>
</svg>
