<svg xmlns="http://www.w3.org/2000/svg" viewBox="1317 2098 44 44">
  <defs>
    <style>
      .cls-1 {
        fill: #444c4e;
      }
    </style>
  </defs>
  <g id="blog" transform="translate(-1680.001 9469)">
    <g id="Group_218" transform="translate(2997.001 -7371)">
      <path id="Path_415" class="cls-1" d="M3019-7371a22.03,22.03,0,0,0-22,22,22.03,22.03,0,0,0,22,22,22.03,22.03,0,0,0,22-22A22.03,22.03,0,0,0,3019-7371Zm10.41,15.883-2.039,2.039-4.292-4.292-1.61,1.609,4.292,4.292-10.409,10.411-4.293-4.293-1.61,1.61,4.292,4.292-1.073,1.073h0a1.072,1.072,0,0,1-.536.429l-3.971.859a.836.836,0,0,1-.966-.645v-.322l.858-3.971a.713.713,0,0,1,.429-.537h0l16.741-16.741a.653.653,0,0,1,.859,0l3.327,3.326c.321.108.321.537,0,.859Z" transform="translate(-2997 7371)"/>
    </g>
  </g>
</svg>
