<svg xmlns="http://www.w3.org/2000/svg" width="19.494" height="20.005" viewBox="0 0 19.494 20.005"><g transform="translate(-5.474)"><g transform="translate(5.474)"><path d="M24.968,17.836V3.874A2.1,2.1,0,0,0,22.922,1.73H20.338V.487a.487.487,0,1,0-.975,0V1.73H11.079V.487a.487.487,0,0,0-.975,0V1.73H7.619A2.1,2.1,0,0,0,5.475,3.776q0,.049,0,.1V17.836A2.12,2.12,0,0,0,7.545,20H22.823a2.12,2.12,0,0,0,2.145-2.095Q24.969,17.873,24.968,17.836ZM7.519,2.7q.05,0,.1,0H10.1V3.923a.487.487,0,0,0,.975,0V2.7h8.284V3.923a.487.487,0,1,0,.975,0V2.7h2.485a1.121,1.121,0,0,1,1.17,1.07q0,.05,0,.1v2H6.449v-2A1.121,1.121,0,0,1,7.519,2.7ZM22.9,19.029H7.619a1.145,1.145,0,0,1-1.17-1.119q0-.037,0-.074V6.847H23.993V17.836A1.145,1.145,0,0,1,22.9,19.029Z" transform="translate(-5.474)" fill="#a5afb1"/><path d="M66.972,189.649h0a1.925,1.925,0,1,0,1.925,1.925A1.925,1.925,0,0,0,66.972,189.649Zm.049,2.875h-.049a.926.926,0,0,1-.95-.9q0-.025,0-.049a.95.95,0,1,1,1.9,0A.926.926,0,0,1,67.021,192.524Z" transform="translate(-62.269 -180.804)" fill="#a5afb1"/><path d="M175.119,189.649a1.925,1.925,0,1,0,1.925,1.925A1.925,1.925,0,0,0,175.119,189.649Zm.049,2.875h-.049a.926.926,0,0,1-.95-.9q0-.025,0-.049a.95.95,0,0,1,1.9,0A.926.926,0,0,1,175.168,192.524Z" transform="translate(-165.372 -180.804)" fill="#a5afb1"/><path d="M283.266,189.649a1.925,1.925,0,1,0,1.925,1.925A1.925,1.925,0,0,0,283.266,189.649Zm.049,2.875h-.049a.926.926,0,0,1-.95-.9q0-.025,0-.049a.95.95,0,1,1,1.9,0A.926.926,0,0,1,283.315,192.524Z" transform="translate(-268.475 -180.804)" fill="#a5afb1"/><path d="M67.021,282.118h-.049a1.925,1.925,0,1,0,1.925,1.925A1.9,1.9,0,0,0,67.021,282.118Zm.9,1.925a.926.926,0,0,1-.926.926h-.025a.95.95,0,1,1,.951-.95C67.922,284.027,67.922,284.035,67.922,284.043Z" transform="translate(-62.269 -268.961)" fill="#a5afb1"/><path d="M175.167,282.118h-.049a1.925,1.925,0,1,0,1.925,1.925A1.9,1.9,0,0,0,175.167,282.118Zm.9,1.925a.926.926,0,0,1-.926.926h-.025a.95.95,0,1,1,.951-.95C176.068,284.027,176.068,284.035,176.068,284.043Z" transform="translate(-165.371 -268.961)" fill="#a5afb1"/><path d="M283.314,282.118h-.049a1.925,1.925,0,1,0,1.925,1.925A1.9,1.9,0,0,0,283.314,282.118Zm.9,1.925a.926.926,0,0,1-.926.926h-.025a.95.95,0,1,1,.951-.95C284.215,284.027,284.215,284.035,284.215,284.043Z" transform="translate(-268.474 -268.961)" fill="#a5afb1"/></g></g></svg>