<svg xmlns="http://www.w3.org/2000/svg" width="19.999" height="19.999" viewBox="0 0 19.999 19.999"><path d="M17.856,2.143H15.714V.714a.714.714,0,1,0-1.429,0V2.143H5.714V.714a.714.714,0,1,0-1.428,0V2.143H2.143A2.143,2.143,0,0,0,0,4.286V17.856A2.143,2.143,0,0,0,2.143,20H17.856A2.143,2.143,0,0,0,20,17.856V4.286A2.143,2.143,0,0,0,17.856,2.143Zm.714,15.714a.714.714,0,0,1-.714.714H2.143a.714.714,0,0,1-.714-.714V8.571H18.57Zm0-10.714H1.428V4.286a.714.714,0,0,1,.714-.714H4.286V5A.714.714,0,0,0,5.714,5V3.571h8.571V5a.714.714,0,1,0,1.429,0V3.571h2.143a.714.714,0,0,1,.714.714V7.143Z" fill="#a5afb1"/><g transform="translate(3.571 9.999)"><path d="M87.476,238.933H86.047a.714.714,0,0,0,0,1.429h1.428a.714.714,0,0,0,0-1.429Z" transform="translate(-85.333 -238.933)" fill="#a5afb1"/></g><g transform="translate(8.571 9.999)"><path d="M206.943,238.933h-1.428a.714.714,0,0,0,0,1.429h1.428a.714.714,0,0,0,0-1.429Z" transform="translate(-204.8 -238.933)" fill="#a5afb1"/></g><g transform="translate(13.571 9.999)"><path d="M326.41,238.933h-1.428a.714.714,0,0,0,0,1.429h1.428a.714.714,0,0,0,0-1.429Z" transform="translate(-324.267 -238.933)" fill="#a5afb1"/></g><g transform="translate(3.571 12.857)"><path d="M87.476,307.2H86.047a.714.714,0,0,0,0,1.429h1.428a.714.714,0,0,0,0-1.429Z" transform="translate(-85.333 -307.2)" fill="#a5afb1"/></g><g transform="translate(8.571 12.857)"><path d="M206.943,307.2h-1.428a.714.714,0,1,0,0,1.429h1.428a.714.714,0,0,0,0-1.429Z" transform="translate(-204.8 -307.2)" fill="#a5afb1"/></g><g transform="translate(13.571 12.857)"><path d="M326.41,307.2h-1.428a.714.714,0,0,0,0,1.429h1.428a.714.714,0,1,0,0-1.429Z" transform="translate(-324.267 -307.2)" fill="#a5afb1"/></g><g transform="translate(3.571 15.714)"><path d="M87.476,375.467H86.047a.714.714,0,1,0,0,1.428h1.428a.714.714,0,1,0,0-1.428Z" transform="translate(-85.333 -375.467)" fill="#a5afb1"/></g><g transform="translate(8.571 15.714)"><path d="M206.943,375.467h-1.428a.714.714,0,1,0,0,1.428h1.428a.714.714,0,1,0,0-1.428Z" transform="translate(-204.8 -375.467)" fill="#a5afb1"/></g><g transform="translate(13.571 15.714)"><path d="M326.41,375.467h-1.428a.714.714,0,1,0,0,1.428h1.428a.714.714,0,1,0,0-1.428Z" transform="translate(-324.267 -375.467)" fill="#a5afb1"/></g></svg>