<svg xmlns="http://www.w3.org/2000/svg" width="22" height="22" viewBox="0 0 22 22"><g transform="translate(0 0)"><path d="M6.488,18.09a2.571,2.571,0,0,0-.82-1.883v0c.046-.631.083-1.3.111-1.983a4.216,4.216,0,0,1,2.784,1.492,3.114,3.114,0,0,1,.429,2.406,1.941,1.941,0,0,0,1.473,2.369,9.855,9.855,0,0,0,1.861.179A9.737,9.737,0,0,0,22,11c0-5.441-4.73-9.88-9.672-9.7a11.256,11.256,0,0,0-6.8,2.891q-.032-.3-.067-.582A15.525,15.525,0,0,0,5.03,1.28C4.918.9,4.655,0,3.91,0S2.9.9,2.79,1.28a15.53,15.53,0,0,0-.431,2.327A63.18,63.18,0,0,0,1.977,11c0,1.818.061,3.617.175,5.2v0a2.571,2.571,0,0,0-.82,1.883v1.332A1.329,1.329,0,0,1,0,20.711V22H2.621a3.9,3.9,0,0,0,3.867-3.91Zm5.886-15.5A8.487,8.487,0,0,1,20.711,11a8.431,8.431,0,0,1-10,8.221.658.658,0,0,1-.458-.822,4.354,4.354,0,0,0-.637-3.435,5.552,5.552,0,0,0-3.792-2.046c.015-.631.023-1.966.023-1.99A1.934,1.934,0,1,0,5.8,8.449c-.029-.916-.073-1.794-.131-2.615a10.2,10.2,0,0,1,6.7-3.248ZM6.686,9.5a.645.645,0,1,1,.456.789A.644.644,0,0,1,6.686,9.5ZM3.575,4.316A20.636,20.636,0,0,1,3.91,2.1a20.635,20.635,0,0,1,.335,2.214A65.618,65.618,0,0,1,4.555,11q0,.323,0,.645H3.268q0-.321,0-.645a65.618,65.618,0,0,1,.309-6.684Zm-.286,8.617H4.531c-.022.91-.06,1.8-.112,2.629a2.58,2.58,0,0,0-1.018,0c-.052-.834-.09-1.719-.112-2.629Zm-.668,6.489V18.09a1.289,1.289,0,1,1,2.578,0,2.6,2.6,0,0,1-2.578,2.621H2.266A2.509,2.509,0,0,0,2.621,19.422Z" transform="translate(0 0)" fill="#ea6575"/><path d="M329.143,129.468a1.934,1.934,0,1,0-2.735,0A1.933,1.933,0,0,0,329.143,129.468Zm-1.823-1.823a.645.645,0,1,1,0,.911A.645.645,0,0,1,327.32,127.645Z" transform="translate(-311.841 -120.747)" fill="#ea6575"/><path d="M212.371,98.886A1.934,1.934,0,1,0,210,97.519,1.936,1.936,0,0,0,212.371,98.886ZM211.7,96.4a.645.645,0,1,1-.456.789.645.645,0,0,1,.456-.789Z" transform="translate(-200.916 -90.999)" fill="#ea6575"/><path d="M272.119,329.332a1.934,1.934,0,1,0,1.367-2.368A1.936,1.936,0,0,0,272.119,329.332Zm1.7-1.123a.645.645,0,1,1-.456.789A.644.644,0,0,1,273.82,328.209Z" transform="translate(-260.363 -312.851)" fill="#ea6575"/><path d="M356.972,243.478a1.934,1.934,0,1,0,2.368-1.367A1.936,1.936,0,0,0,356.972,243.478Zm2.49.667a.644.644,0,1,1-.456-.789A.644.644,0,0,1,359.462,244.146Z" transform="translate(-341.57 -231.644)" fill="#ea6575"/></g></svg>