<svg xmlns="http://www.w3.org/2000/svg" width="22.003" height="19.768" viewBox="0 0 22.003 19.768"><g transform="translate(0 -16.512)"><path d="M44.973,205.63a1.8,1.8,0,0,0-1.11-.385,1.779,1.779,0,0,0-1.393.665,1.763,1.763,0,0,0,.283,2.492,1.8,1.8,0,0,0,1.11.385,1.778,1.778,0,0,0,1.393-.666,1.763,1.763,0,0,0-.283-2.491Zm-.35,1.982a.978.978,0,0,1-1.366.152.951.951,0,0,1-.154-1.345.979.979,0,0,1,1.366-.151.951.951,0,0,1,.154,1.345Z" transform="translate(-39.231 -175.957)" fill="#ea6575"/><path d="M165.725,100.7a1.781,1.781,0,0,0,1.681-1.19,1.748,1.748,0,0,0-.079-1.35,1.789,1.789,0,0,0-2.379-.827,1.765,1.765,0,0,0-.832,2.365A1.8,1.8,0,0,0,165.725,100.7Zm-.92-2.085a.954.954,0,0,1,.494-.549.977.977,0,0,1,1.3.449.942.942,0,0,1,.043.727.956.956,0,0,1-.494.55.97.97,0,0,1-.421.1.98.98,0,0,1-.878-.545A.941.941,0,0,1,164.8,98.615Z" transform="translate(-152.841 -75.186)" fill="#ea6575"/><path d="M105.921,58.918a1.806,1.806,0,0,0,.4.044,1.771,1.771,0,0,0,1.737-1.376,1.753,1.753,0,0,0-.227-1.332,1.771,1.771,0,0,0-1.115-.788,1.805,1.805,0,0,0-.4-.045,1.77,1.77,0,0,0-1.735,1.376,1.748,1.748,0,0,0,.226,1.332A1.768,1.768,0,0,0,105.921,58.918Zm-.551-1.938a.961.961,0,0,1,.944-.746.992.992,0,0,1,.219.025.964.964,0,0,1,.608.429.944.944,0,0,1,.123.718.975.975,0,0,1-.946.745.994.994,0,0,1-.219-.025.962.962,0,0,1-.608-.428A.942.942,0,0,1,105.371,56.98Z" transform="translate(-97.457 -36.275)" fill="#ea6575"/><path d="M37.5,78.581a1.765,1.765,0,0,0,.282-2.492,1.793,1.793,0,0,0-2.5-.28A1.763,1.763,0,0,0,35,78.3a1.791,1.791,0,0,0,2.5.28Zm-1.87-.789a.951.951,0,0,1,.153-1.345.981.981,0,0,1,1.367.152A.953.953,0,0,1,37,77.944a.979.979,0,0,1-1.366-.152Z" transform="translate(-32.267 -54.925)" fill="#ea6575"/><path d="M21.848,19.682a.536.536,0,0,0-.393-.155c-.232,0-.847,0-4.586,3.181l-.227.194a9.967,9.967,0,0,0-9.324-6.389h0a9.78,9.78,0,0,0-4.65,1.337C.946,18.86,0,20.212,0,21.655a3.487,3.487,0,0,0,1.774,3.058c.644.478,1.153.855,1.153,1.682s-.508,1.2-1.152,1.681A3.482,3.482,0,0,0,0,31.133c0,1.444.948,2.8,2.668,3.807A9.787,9.787,0,0,0,7.323,36.28h0a9.939,9.939,0,0,0,7.043-2.892,9.771,9.771,0,0,0,2.917-6.882c.631-.718,1.242-1.431,1.8-2.1.954-1.15,1.688-2.1,2.181-2.82C21.919,20.628,22.205,20.042,21.848,19.682ZM13.8,32.811a9.131,9.131,0,0,1-6.471,2.656h0c-2.62,0-6.507-1.821-6.508-4.335a2.7,2.7,0,0,1,1.443-2.4,2.79,2.79,0,0,0,1.48-2.334,2.794,2.794,0,0,0-1.482-2.334A2.706,2.706,0,0,1,.812,21.655c0-1.543,1.419-2.608,2.265-3.106a9.055,9.055,0,0,1,4.239-1.225h0a9.154,9.154,0,0,1,8.668,6.146c-1.762,1.538-3.669,3.312-5.09,4.737-2.36.305-2.681,1.878-2.916,3.033-.2.984-.33,1.459-1.089,1.52a.406.406,0,0,0-.123.78,7.438,7.438,0,0,0,2.567.495h0a4.156,4.156,0,0,0,2.411-.681,4.2,4.2,0,0,0,1.627-2.624c.928-.939,1.989-2.072,3.038-3.238A8.965,8.965,0,0,1,13.8,32.811Zm-1.241-2.158a3.057,3.057,0,0,1-3.222,2.57h0a6.092,6.092,0,0,1-1.245-.138A3.27,3.27,0,0,0,8.775,31.4c.223-1.1.434-2.136,2.161-2.382Zm5.609-6.415c-1.61,1.918-3.559,4.072-5.163,5.71l-.248-.25-1.1-1.1c1.455-1.448,3.321-3.174,5.062-4.685h0c.2-.176.4-.35.6-.52a31.216,31.216,0,0,1,3.619-2.8A31.294,31.294,0,0,1,18.165,24.239Z" transform="translate(0)" fill="#ea6575"/></g></svg>