<svg xmlns="http://www.w3.org/2000/svg" viewBox="1317 2252 44 44">
  <defs>
    <style>
      .cls-1 {
        fill: #444c4e;
      }
    </style>
  </defs>
  <g id="github" transform="translate(-1679.893 9781.607)">
    <path id="Path_417" class="cls-1" d="M3037.988-7518.421a22.485,22.485,0,0,0-8.046-8.22,20.688,20.688,0,0,0-11.05-2.959,21.713,21.713,0,0,0-11.049,2.959,22.487,22.487,0,0,0-8.046,8.22,21.847,21.847,0,0,0-2.9,11.288,22.594,22.594,0,0,0,4.184,13.262,21.2,21.2,0,0,0,10.835,8.11,1.461,1.461,0,0,0,1.18-.22.919.919,0,0,0,.322-.876v-4.165l-.644.109a7.929,7.929,0,0,1-1.609.11,14.392,14.392,0,0,1-2.038-.219,3.942,3.942,0,0,1-1.931-.876,4.124,4.124,0,0,1-1.287-1.754l-.322-.657a11.019,11.019,0,0,0-.858-1.534,3.182,3.182,0,0,0-1.288-1.1l-.215-.11-.321-.328a.573.573,0,0,1-.214-.438c-.107-.11,0-.219.107-.329a2.052,2.052,0,0,1,.858-.109l.537.109a3.3,3.3,0,0,1,1.394.659,4.731,4.731,0,0,1,1.395,1.534,6.663,6.663,0,0,0,1.61,1.864,2.876,2.876,0,0,0,1.824.657,7.927,7.927,0,0,0,1.609-.11,5.947,5.947,0,0,0,1.288-.438,5.724,5.724,0,0,1,1.395-3.068,26.852,26.852,0,0,1-2.9-.548,11.563,11.563,0,0,1-2.682-1.1,8.03,8.03,0,0,1-2.253-1.972,10.163,10.163,0,0,1-1.5-3.069,12.02,12.02,0,0,1-.536-4.384,8.936,8.936,0,0,1,2.252-6.028,7.554,7.554,0,0,1,.215-5.918,3.855,3.855,0,0,1,2.468.438,15.627,15.627,0,0,1,2.36,1.1,7.711,7.711,0,0,1,1.18.767,20.612,20.612,0,0,1,10.943,0l1.073-.657a12.331,12.331,0,0,1,2.682-1.316,4.3,4.3,0,0,1,2.36-.328,7.569,7.569,0,0,1,.214,5.918,8.444,8.444,0,0,1,2.253,6.028,19.6,19.6,0,0,1-.536,4.384,10.187,10.187,0,0,1-1.5,3.069,8.5,8.5,0,0,1-2.36,1.972,8.189,8.189,0,0,1-2.682,1.1,26.83,26.83,0,0,1-2.9.548,5.423,5.423,0,0,1,1.5,4.165v6.138a1.261,1.261,0,0,0,.322.876,1.465,1.465,0,0,0,1.18.219,21.19,21.19,0,0,0,10.835-8.11,21.55,21.55,0,0,0,4.183-13.152A20.878,20.878,0,0,0,3037.988-7518.421Z" transform="translate(0 0)"/>
  </g>
</svg>
