<svg xmlns="http://www.w3.org/2000/svg" width="14.427" height="22.004" viewBox="0 0 14.427 22.004"><g transform="translate(-39.495 -4.743)"><g transform="translate(39.495 4.743)"><g transform="translate(0)"><path d="M112.543,93.2a7.224,7.224,0,0,0-4.774,12.637c1.142,1.142,1.038,3.581,1.012,3.607a.43.43,0,0,0,.13.337.479.479,0,0,0,.311.13h6.617a.43.43,0,0,0,.311-.13.493.493,0,0,0,.13-.337c0-.026-.13-2.465,1.012-3.607l.078-.078A7.2,7.2,0,0,0,112.543,93.2Zm4.152,11.962c-.026.026-.078.078-.078.1A6.059,6.059,0,0,0,115.4,109h-5.734a6.03,6.03,0,0,0-1.3-3.84,6.318,6.318,0,1,1,8.329,0Z" transform="translate(-105.329 -93.2)" fill="#ea6575"/><path d="M209.77,121.6a.441.441,0,1,0,0,.882,4.723,4.723,0,0,1,4.723,4.723.441.441,0,1,0,.882,0A5.581,5.581,0,0,0,209.77,121.6Z" transform="translate(-202.582 -119.758)" fill="#ea6575"/><path d="M161.779,358.4h-5.76a1.09,1.09,0,0,0,0,2.18h5.734a1.119,1.119,0,0,0,1.116-1.09A1.1,1.1,0,0,0,161.779,358.4Zm0,1.271h-5.76a.2.2,0,0,1-.208-.208.191.191,0,0,1,.208-.208h5.734a.2.2,0,0,1,.208.208A.185.185,0,0,1,161.779,359.671Z" transform="translate(-151.711 -341.197)" fill="#ea6575"/><path d="M173.267,398.8h-4.048a1.09,1.09,0,0,0,0,2.18h4.048a1.1,1.1,0,0,0,1.09-1.09A1.08,1.08,0,0,0,173.267,398.8Zm0,1.271h-4.048a.2.2,0,0,1-.208-.208.191.191,0,0,1,.208-.208h4.048a.208.208,0,0,1,0,.415Z" transform="translate(-164.055 -378.976)" fill="#ea6575"/></g></g></g></svg>