<svg xmlns="http://www.w3.org/2000/svg" width="16.21" height="21.999" viewBox="0 0 16.21 21.999"><g transform="translate(-5 -5)"><g transform="translate(5 5)"><path d="M14.842,27H11.368a1.88,1.88,0,0,1-1.737-2.084V22.483a4.021,4.021,0,0,0-1.505-3.01A8,8,0,0,1,5,12.989,8.24,8.24,0,0,1,12.989,5a8.137,8.137,0,0,1,5.789,2.316A8.243,8.243,0,0,1,21.21,13.1a7.787,7.787,0,0,1-3.01,6.252A4.227,4.227,0,0,0,16.578,22.6v2.663A1.781,1.781,0,0,1,14.842,27ZM13.1,6.158a7.1,7.1,0,0,0-6.947,6.831,6.806,6.806,0,0,0,2.663,5.558,5.046,5.046,0,0,1,1.968,3.937v2.431c0,.232,0,.926.579.926h3.474a.547.547,0,0,0,.579-.579V22.6A5.627,5.627,0,0,1,17.5,18.431,6.752,6.752,0,0,0,20.052,13.1a6.921,6.921,0,0,0-2.084-4.979A6.825,6.825,0,0,0,13.1,6.158Z" transform="translate(-5 -5)" fill="#ea6575"/></g><g transform="translate(9.631 22.368)"><path d="M15.368,21.158H9.579a.579.579,0,1,1,0-1.158h5.789a.579.579,0,1,1,0,1.158Z" transform="translate(-9 -20)" fill="#ea6575"/></g><g transform="translate(12.526 7.895)"><path d="M16.71,13.289a.547.547,0,0,1-.579-.579,4.1,4.1,0,0,0-4.052-4.052.579.579,0,0,1,0-1.158,5.189,5.189,0,0,1,5.21,5.21A.547.547,0,0,1,16.71,13.289Z" transform="translate(-11.5 -7.5)" fill="#ea6575"/></g></g></svg>