<svg xmlns="http://www.w3.org/2000/svg" width="18.344" height="22.004" viewBox="0 0 18.344 22.004"><g transform="translate(-35.966)"><g transform="translate(35.966)"><g transform="translate(0)"><path d="M110.988,93.2a5.667,5.667,0,0,0-3.745,9.913,4.255,4.255,0,0,1,.794,2.829.337.337,0,0,0,.1.265.376.376,0,0,0,.244.1h5.191a.337.337,0,0,0,.244-.1.387.387,0,0,0,.1-.265,4.383,4.383,0,0,1,.794-2.829l.061-.061a5.65,5.65,0,0,0-3.786-9.852Zm3.257,9.384c-.02.02-.061.061-.061.081a4.753,4.753,0,0,0-.957,2.931h-4.5a4.73,4.73,0,0,0-1.018-3.013,4.957,4.957,0,1,1,6.534,0Z" transform="translate(-101.799 -88.457)" fill="#ea6575"/><path d="M209.675,121.6a.346.346,0,1,0,0,.692,3.705,3.705,0,0,1,3.7,3.7.346.346,0,1,0,.692,0A4.378,4.378,0,0,0,209.675,121.6Z" transform="translate(-200.507 -115.412)" fill="#ea6575"/><path d="M160.3,358.4h-4.519a.855.855,0,1,0,0,1.71h4.5a.878.878,0,0,0,.875-.855A.86.86,0,0,0,160.3,358.4Zm0,1h-4.519a.161.161,0,0,1-.163-.163.15.15,0,0,1,.163-.163h4.5a.161.161,0,0,1,.163.163A.145.145,0,0,1,160.3,359.4Z" transform="translate(-148.875 -340.162)" fill="#ea6575"/><path d="M172.159,398.8h-3.175a.855.855,0,0,0,0,1.71h3.175a.86.86,0,0,0,.855-.855A.847.847,0,0,0,172.159,398.8Zm0,1h-3.175a.161.161,0,0,1-.163-.163.15.15,0,0,1,.163-.163h3.175a.163.163,0,0,1,0,.326Z" transform="translate(-161.403 -378.506)" fill="#ea6575"/><path d="M209.675,3.053a.343.343,0,0,0,.346-.346V.346a.346.346,0,0,0-.692,0V2.707A.357.357,0,0,0,209.675,3.053Z" transform="translate(-200.507)" fill="#ea6575"/><path d="M294.975,33.179a.328.328,0,0,0-.468.081l-1.3,1.954a.335.335,0,0,0,.081.489.328.328,0,0,0,.183.061.325.325,0,0,0,.285-.163l1.3-1.954A.316.316,0,0,0,294.975,33.179Z" transform="translate(-280.047 -31.428)" fill="#ea6575"/><path d="M104.661,33.591a.328.328,0,0,0,.183-.061.357.357,0,0,0,.1-.489l-1.262-1.974a.353.353,0,0,0-.59.387l1.262,1.974A.338.338,0,0,0,104.661,33.591Z" transform="translate(-99.625 -29.337)" fill="#ea6575"/><path d="M38.539,104.45l-2.056-1.12a.358.358,0,0,0-.468.142.325.325,0,0,0,.142.468l2.056,1.12a.479.479,0,0,0,.163.041.336.336,0,0,0,.305-.183A.358.358,0,0,0,38.539,104.45Z" transform="translate(-35.966 -98.038)" fill="#ea6575"/><path d="M344.946,103.473a.358.358,0,0,0-.468-.142l-2.076,1.12a.358.358,0,0,0-.142.468.336.336,0,0,0,.305.183.383.383,0,0,0,.163-.041l2.076-1.12A.358.358,0,0,0,344.946,103.473Z" transform="translate(-326.638 -98.038)" fill="#ea6575"/></g></g></g></svg>