<svg xmlns="http://www.w3.org/2000/svg" width="22.004" height="22.001" viewBox="0 0 22.004 22.001">
  <g id="avion" transform="translate(0.004 0)">
    <g id="Grupo_1" data-name="Grupo 1">
      <path id="Trazado_1" data-name="Trazado 1" d="M21.781.09a.5.5,0,0,0-.534-.024l-21,12a.5.5,0,0,0,.09.908l6.27,2.09L9.024,21.67A.5.5,0,0,0,9.5,22a.457.457,0,0,0,.058,0,.493.493,0,0,0,.329-.189h0l3.557-4.468,4.892,1.631A.49.49,0,0,0,18.5,19a.5.5,0,0,0,.493-.418l3-18A.5.5,0,0,0,21.781.09ZM1.719,12.377,18.353,2.871,6.867,14.093ZM9.8,15.433a.5.5,0,0,0-.094.237l-.452,3.7L7.579,14.8l9.777-9.552Zm.409,4.367.415-3.4,1.812.6ZM18.1,17.837l-7.086-2.362,9.648-13.01Z" fill="#ea6575"/>
    </g>
  </g>
</svg>
