<svg xmlns="http://www.w3.org/2000/svg" viewBox="1317 2175 44 44">
  <defs>
    <style>
      .cls-1 {
        fill: #444c4e;
      }
    </style>
  </defs>
  <g id="twitter" transform="translate(-1680 9623)">
    <g id="Group_219" transform="translate(2997 -7448)">
      <path id="Path_416" class="cls-1" d="M3019-7448a22.03,22.03,0,0,0-22,22,22.03,22.03,0,0,0,22,22,22.03,22.03,0,0,0,22-22A22.03,22.03,0,0,0,3019-7448Zm10.946,17.063v.751a15.435,15.435,0,0,1-15.346,15.453,15.846,15.846,0,0,1-8.371-2.467c.429,0,.859.107,1.287.107a11.007,11.007,0,0,0,6.761-2.362,5.182,5.182,0,0,1-5.043-3.755,6.369,6.369,0,0,0,2.468-.107,5.294,5.294,0,0,1-4.293-5.259v-.107a4.992,4.992,0,0,0,2.468.644,5.45,5.45,0,0,1-1.717-7.189,15.209,15.209,0,0,0,11.161,5.688,5.565,5.565,0,0,1,4.078-6.547,5.385,5.385,0,0,1,5.151,1.609,10.292,10.292,0,0,0,3.434-1.287,5.549,5.549,0,0,1-2.361,3,10.293,10.293,0,0,0,3.113-.858A16.527,16.527,0,0,1,3029.947-7430.937Z" transform="translate(-2997 7448)"/>
    </g>
  </g>
</svg>
